<svg width="52" height="52" viewBox="0 0 52 52" fill="none" xmlns="http://www.w3.org/2000/svg">
<g clip-path="url(#clip0_2_1336)">
<path d="M19.75 8.40984e-06C19.4597 0.0431742 19.1825 0.149693 18.938 0.312008C18.938 0.312008 16.408 1.90401 13.688 3.62601C10.968 5.34601 7.94201 7.24201 7.25001 7.62601C7.20733 7.64454 7.1653 7.66455 7.12401 7.68601C4.61201 9.23601 4.09001 11.768 4.00001 13.188C3.99401 13.254 4.00001 13.308 4.00001 13.378C3.97801 13.91 4.00001 14.252 4.00001 14.252V40.378C4.00001 44.174 8.42601 46 12.626 46C14.026 46 15.426 45.774 16.626 45.374C17.426 44.974 18 44.174 18 43.374V22.374C18 17.774 19 15.614 22 13.814C22.8 13.414 31.188 7.62401 31.188 7.62401C31.588 7.22401 32 6.41201 32 5.81201V5.62401C32 4.82401 31.6 4.21201 31 3.81201C30.4 3.41201 29.6 3.41201 29 3.81201C28.8 4.01201 16.6 12.226 14 13.626C11.4 15.226 8.97401 15.612 8.37401 14.812C8.18801 14.626 8.02601 14.056 8.00001 13.5V13.374C8.00201 12.83 8.14201 11.806 9.25001 11.124C10.374 10.498 13.164 8.71601 15.876 7.00001C17.022 6.27401 17.164 6.19601 18.062 5.62401C18.1802 6.1126 18.4781 6.53875 18.8963 6.81765C19.3145 7.09654 19.8224 7.20771 20.3189 7.12904C20.8154 7.05037 21.2641 6.78762 21.5756 6.3931C21.8871 5.99857 22.0386 5.50121 22 5.00001V2.00001C22.0022 1.71494 21.9435 1.43268 21.8278 1.17217C21.712 0.91165 21.5419 0.678892 21.3288 0.489496C21.1157 0.300099 20.8646 0.158442 20.5923 0.0740208C20.32 -0.0104005 20.0329 -0.0356352 19.75 8.40984e-06ZM35.75 7.00001C35.432 7.0529 35.1314 7.1819 34.874 7.37601C34.874 7.37601 24.806 14.15 23.062 15.312C23.0409 15.3329 23.0202 15.3542 23 15.376C21.552 16.462 20.694 17.754 20.312 18.936C20.098 19.6028 19.9926 20.2997 20 21V21.626C19.9971 21.688 19.9971 21.75 20 21.812V46C20 49.8 24.376 52 28.376 52C30.176 52 31.8 51.612 33 50.812C35.4 49.412 47 40.376 47 40.376C47.6 39.976 48 39.412 48 38.812V12.812C48 11.812 47.612 11.212 46.812 10.812C46.212 10.412 45.226 10.6 44.626 11C41.426 13.4 32.812 20.176 30.812 21.376C28.012 22.976 25.374 23.376 24.374 22.376C23.974 21.976 24 21.6 24 21C24.012 20.656 24.05 20.36 24.126 20.124C24.238 19.776 24.466 19.348 25.312 18.688C25.352 18.656 25.332 18.658 25.374 18.626C26.82 17.66 31.242 14.646 34.126 12.686C34.2894 13.1243 34.6013 13.4915 35.0074 13.7237C35.4135 13.9559 35.8881 14.0384 36.3488 13.9568C36.8094 13.8752 37.2269 13.6348 37.5286 13.2773C37.8303 12.9198 37.9971 12.4678 38 12V9.00001C38.0022 8.71494 37.9435 8.43268 37.8278 8.17217C37.712 7.91165 37.5419 7.67889 37.3288 7.4895C37.1157 7.3001 36.8646 7.15844 36.5923 7.07402C36.32 6.9896 36.0329 6.96437 35.75 7.00001ZM44 21.626V25.626L34 33.374V29.374L44 21.626Z" fill="white"/>
</g>
<defs>
<clipPath id="clip0_2_1336">
<rect width="52" height="52" fill="white"/>
</clipPath>
</defs>
</svg>
