<svg width="101" height="101" viewBox="0 0 101 101" fill="none" xmlns="http://www.w3.org/2000/svg">
<path fill-rule="evenodd" clip-rule="evenodd" d="M36.2969 18.9375V9.46875H64.7031V18.9375H36.2969ZM26.8281 18.9375V6.3125C26.8281 4.63832 27.4932 3.03271 28.677 1.84889C29.8608 0.665065 31.4664 0 33.1406 0L67.8594 0C69.5336 0 71.1392 0.665065 72.323 1.84889C73.5068 3.03271 74.1719 4.63832 74.1719 6.3125V18.9375H89.9531C91.2088 18.9375 92.413 19.4363 93.3008 20.3242C94.1887 21.212 94.6875 22.4162 94.6875 23.6719C94.6875 24.9275 94.1887 26.1317 93.3008 27.0196C92.413 27.9075 91.2088 28.4062 89.9531 28.4062H87.6491L82.9589 89.3408C82.7155 92.5125 81.2839 95.4754 78.9502 97.6371C76.6165 99.7988 73.5528 101 70.3717 101H30.6283C27.4472 101 24.3835 99.7988 22.0498 97.6371C19.7161 95.4754 18.2845 92.5125 18.0411 89.3408L13.3509 28.4062H11.0469C9.79124 28.4062 8.58703 27.9075 7.69917 27.0196C6.8113 26.1317 6.3125 24.9275 6.3125 23.6719C6.3125 22.4162 6.8113 21.212 7.69917 20.3242C8.58703 19.4363 9.79124 18.9375 11.0469 18.9375H26.8281ZM22.8512 28.4062H78.1488L73.5154 88.6149C73.455 89.4075 73.0977 90.1482 72.5149 90.6889C71.9321 91.2295 71.1667 91.5304 70.3717 91.5312H30.6283C29.8333 91.5304 29.0679 91.2295 28.4851 90.6889C27.9023 90.1482 27.545 89.4075 27.4846 88.6149L22.8512 28.4062Z" fill="white"/>
</svg>
