<svg width="101" height="101" viewBox="0 0 101 101" fill="none" xmlns="http://www.w3.org/2000/svg">
<path d="M12.625 88.375V70.4896L68.175 15.0448C69.0167 14.2733 69.9467 13.6771 70.9651 13.2563C71.9835 12.8354 73.0525 12.625 74.1719 12.625C75.2913 12.625 76.3784 12.8354 77.4333 13.2563C78.4882 13.6771 79.4 14.3083 80.1687 15.15L85.9552 21.0417C86.7969 21.8132 87.4113 22.725 87.7985 23.7771C88.1856 24.8292 88.3778 25.8813 88.375 26.9333C88.375 28.0556 88.1828 29.1259 87.7985 30.1443C87.4141 31.1627 86.7997 32.0913 85.9552 32.9302L30.5104 88.375H12.625ZM74.0667 32.825L79.9583 26.9333L74.0667 21.0417L68.175 26.9333L74.0667 32.825Z" fill="white"/>
</svg>
