<svg width="55" height="56" viewBox="0 0 55 56" fill="none" xmlns="http://www.w3.org/2000/svg">
<path d="M27.5 18.7476C29.3234 18.7476 31.072 18.0165 32.3614 16.7152C33.6507 15.4138 34.375 13.6488 34.375 11.8084C34.375 9.96799 33.6507 8.20296 32.3614 6.9016C31.072 5.60024 29.3234 4.86914 27.5 4.86914C25.6766 4.86914 23.928 5.60024 22.6386 6.9016C21.3493 8.20296 20.625 9.96799 20.625 11.8084C20.625 13.6488 21.3493 15.4138 22.6386 16.7152C23.928 18.0165 25.6766 18.7476 27.5 18.7476ZM27.5 26.936C22.0917 21.8703 14.8958 18.7476 6.875 18.7476V44.1916C14.8958 44.1916 22.0917 47.3142 27.5 52.3799C32.9083 47.3142 40.1042 44.1916 48.125 44.1916V18.7476C40.1042 18.7476 32.9083 21.8703 27.5 26.936Z" fill="#5800C8"/>
</svg>
