<svg width="52" height="52" viewBox="0 0 52 52" fill="none" xmlns="http://www.w3.org/2000/svg">
<path d="M34.6666 36.8333V41.1666H4.33325V36.8333C4.33325 36.8333 4.33325 28.1666 19.4999 28.1666C34.6666 28.1666 34.6666 36.8333 34.6666 36.8333ZM27.0833 16.25C27.0833 14.7501 26.6385 13.284 25.8052 12.0369C24.972 10.7898 23.7876 9.81786 22.4019 9.24389C21.0163 8.66993 19.4915 8.51975 18.0205 8.81236C16.5495 9.10496 15.1982 9.8272 14.1377 10.8878C13.0771 11.9483 12.3549 13.2995 12.0623 14.7705C11.7697 16.2416 11.9199 17.7663 12.4938 19.152C13.0678 20.5377 14.0398 21.722 15.2868 22.5553C16.5339 23.3886 18.0001 23.8333 19.4999 23.8333C21.5111 23.8333 23.44 23.0344 24.8621 21.6122C26.2843 20.1901 27.0833 18.2612 27.0833 16.25ZM34.5366 28.1666C35.8685 29.1974 36.9584 30.5076 37.7295 32.0049C38.5007 33.5022 38.9343 35.1504 38.9999 36.8333V41.1666H47.6666V36.8333C47.6666 36.8333 47.6666 28.9683 34.5366 28.1666ZM32.4999 8.66664C31.0088 8.65971 29.5506 9.10546 28.3182 9.94498C29.6344 11.7839 30.342 13.9886 30.342 16.25C30.342 18.5114 29.6344 20.716 28.3182 22.555C29.5506 23.3945 31.0088 23.8402 32.4999 23.8333C34.5111 23.8333 36.44 23.0344 37.8621 21.6122C39.2843 20.1901 40.0832 18.2612 40.0832 16.25C40.0832 14.2388 39.2843 12.3099 37.8621 10.8878C36.44 9.4656 34.5111 8.66664 32.4999 8.66664Z" fill="white"/>
</svg>
